<?xml version="1.0" encoding="utf-8"?>
<!-- Generator: Adobe Illustrator 18.1.1, SVG Export Plug-In . SVG Version: 6.00 Build 0)  -->
<svg version="1.1" id="Calque_1" xmlns="http://www.w3.org/2000/svg" xmlns:xlink="http://www.w3.org/1999/xlink" x="0px" y="0px"
	 viewBox="0 0 283.5 226.8" enable-background="new 0 0 283.5 226.8" xml:space="preserve">
<g>
	<path d="M89.8,103.9c0-9.4,6.6-10.5,13-10.5h7.3c8.1,0,11.4,3.3,11.4,8.8v0.7h-4.1v-0.6c0-4.3-2.9-5.3-7.2-5.3h-8
		c-4.1,0-8,0.6-8,7.1v5.4c0,5.8,3.6,7.1,8.9,7.1h7.4c4.1,0,7.5-1.2,7.5-5.4v-0.9h4.1v0.8c0,6.6-3.3,9.1-11.4,9.1h-9.9
		c-3.9,0-10.9-1.1-10.9-10.5V103.9z"/>
	<path d="M129.3,82.9h4.4v36.9h-4.4V82.9z"/>
	<path d="M142.5,82.9h4.4v4.8h-4.4V82.9z M142.5,93.8h4.4v26h-4.4V93.8z"/>
	<path d="M155.5,93.8h4.1v4.1h0.1c1.3-3.2,4.8-4.5,8.7-4.5h8.3c6.2,0,12,2,12,10.9v4.6c0,8.4-3.7,11.3-12.7,11.3h-8.4
		c-4.6,0-6.7-1.2-7.6-3.9h-0.1v8.7h-4.4V93.8z M184.3,104.4c0-5-1.6-7.4-7.8-7.4h-8.7c-5.7,0-7.9,3-7.9,7.5v4.9
		c0,6.2,3.9,7.2,8.5,7.2h7.8c5.1,0,8.1-1.1,8.1-7.1V104.4z"/>
	<path fill="#DC0814" d="M194.8,110.8h4.1v1.3c0,3.2,1.7,4.5,6.2,4.5h9.4c6.6,0,8.7-0.2,8.7-4.1v-0.2c0-2.5-0.7-3.9-6-3.9h-13.5
		c-6.2,0-8.5-2-8.5-6.9v-1.5c0-4.2,2.4-6.6,13.2-6.6h6.7c9.9,0,11.2,2.9,11.2,6.5v1.4h-4.1V101c0-4-2.7-4.1-7.4-4.1h-7.6
		c-6.3,0-7.6,0.6-7.6,3.6v1c0,2.1,0.7,3.4,5.3,3.4h11.6c6.6,0,11,0.7,11,7.7v0.1c0,7.3-6.7,7.5-12.1,7.5h-8c-6.5,0-12.5,0-12.5-7.8
		V110.8z"/>
	<path d="M233.9,103.9c0-8.6,6.1-10.5,14.4-10.5h6.3c8.3,0,14.4,2,14.4,10.5v5.7c0,8.5-6.1,10.5-14.4,10.5h-6.3
		c-8.3,0-14.4-2-14.4-10.5V103.9z M264.5,104.2c0-6.1-3.6-7.2-8.7-7.2h-8.9c-5.1,0-8.7,1.2-8.7,7.2v5.2c0,6.1,3.6,7.2,8.7,7.2h8.9
		c5.1,0,8.7-1.2,8.7-7.2V104.2z"/>
	<path fill="#B2B2B2" d="M263.9,148.5h-32.2c-2.8,0-5,2.3-5,5v5c0,25.6-17.7,27.4-54.1,27.4h-54.4c-46.8,0-65-14.4-65-51.3V91.5
		c0-47.1,26.3-50.9,58.2-50.9h63c38,0,52.1,9.9,52.1,37v4.8c0,2.8,2.3,5,5,5h32.2c2.8,0,5-2.3,5-5v-5.6c0-49.6-31.9-74.5-94.8-74.5
		h-57.3C63.1,2.4,8.4,12.8,8.4,90.3v45.9c0,57.5,31.5,88,91.2,88h74.1c67.6,0,95.2-11.6,95.2-66.4v-4.2
		C268.9,150.8,266.6,148.5,263.9,148.5z"/>
	<g>
		<path fill="#DC0814" d="M141.3,142c-1.1,1.1-2.9,1.1-4.4,1.1c-1.4,0-3.4,0-4.8-0.4c-2-0.7-2.3-2.8-2.3-4.6c0-4.6,2.1-5,6.1-5
			c1.4,0,4.1-0.1,5.2,1.1c0.7,0.7,0.8,1.6,0.8,2.5h-1.6c0-1.6-0.8-2-2.3-2.1c-0.7-0.1-1.4-0.1-2.1-0.1c-3.3,0-4.4,0.2-4.4,3.9
			c0,0.9,0.1,2,0.8,2.7c0.8,0.8,3.3,0.7,4.3,0.7c0.7,0,1.3,0,2-0.1c1.5-0.2,1.9-0.8,1.9-2.2h1.6C142.1,140.4,142,141.3,141.3,142z"
			/>
		<path fill="#DC0814" d="M145.3,138.5c0,0.8,0.1,1.8,0.7,2.5c0.8,0.9,3.5,0.8,4.6,0.8c1,0,2.9,0.1,3.6-0.7c0.3-0.3,0.3-0.6,0.4-1.1
			h1.6c0,1.9-1,2.7-2.8,3c-0.9,0.2-1.7,0.2-2.6,0.2c-1.3,0-3.3,0-4.7-0.4c-2.1-0.6-2.4-2.7-2.4-4.7c0-4.6,2.1-5,6.1-5
			c0.7,0,1.3,0,2,0c1.3,0.1,2.5,0.2,3.4,1.3c1,1.1,1,2.7,1,4H145.3z M151.3,134.5c-0.5,0-1.1,0-1.6,0c-0.7,0-1.5,0-2.2,0.1
			c-1.6,0.3-2.1,1-2.2,2.5h9.1C154.4,135,153.2,134.6,151.3,134.5z"/>
		<path fill="#DC0814" d="M158.1,130.8v-1.8h1.5v1.8H158.1z M158.1,143v-9.7h1.5v9.7H158.1z"/>
		<path fill="#DC0814" d="M162.2,143v-14h1.6v14H162.2z"/>
		<path fill="#DC0814" d="M166.3,130.8v-1.8h1.5v1.8H166.3z M166.3,143v-9.7h1.5v9.7H166.3z"/>
		<path fill="#DC0814" d="M180.8,143v-4.8c0-0.9,0.1-2.1-0.5-2.8c-0.7-0.9-2.6-0.8-3.6-0.8c-1.5,0-4.1,0-4.7,1.8
			c-0.2,0.7-0.2,1.5-0.2,2.2v4.5h-1.5v-9.7h1.5v1.5h0.1c0.6-1.2,1.7-1.4,2.9-1.5c0.7-0.1,1.3-0.1,2-0.1c1.4,0,3.6-0.1,4.7,1.1
			c0.8,0.8,0.8,2.2,0.8,3.3v5.5H180.8z"/>
		<path fill="#DC0814" d="M196.9,141.7c0,1.3,0.3,3.6-0.9,4.7c-1.3,1.3-4.1,1.2-5.7,1.2c-1.5,0-3.2,0-4.5-0.7
			c-1-0.5-1.3-2.4-1.3-3.5h1.6c0,0.4,0,1,0.1,1.4c0.2,1.7,3.8,1.5,4.8,1.5c1,0,2.8,0,3.8-0.7c0.4-0.3,0.6-0.7,0.7-1.9
			c0-0.9,0-0.9,0.1-2.5h-0.1c-0.3,0.4-0.5,0.6-0.9,0.8c-0.9,0.5-2.8,0.5-3.9,0.5c-1.1,0-3,0-4-0.4c-1.9-0.7-2.2-2.7-2.2-4.4
			c0-4.6,2.9-4.7,6.6-4.7c1.5,0,3.6-0.1,4.5,1.4h0.1l0-1.2h1.5v7.3C196.9,140.9,196.9,141.3,196.9,141.7z M193.3,134.7
			c-0.8-0.2-1.7-0.2-2.5-0.2c-1,0-2,0-3,0.2c-1.7,0.4-1.9,1.7-1.9,3.2c0,0.9,0.1,1.9,0.8,2.6c0.8,0.8,2.9,0.8,4,0.8
			c1,0,2.1,0,3.1-0.3c1.6-0.4,1.7-2,1.7-3.4C195.4,136,195.1,135,193.3,134.7z"/>
		<path d="M222.6,143l-2.8-1.5c-0.8,0.9-1.1,1.1-2.3,1.3c-1.8,0.3-3.8,0.3-5.6,0.3c-1.6,0-3.8,0-5.4-0.4c-2.1-0.6-2.5-2.4-2.5-4.3
			c0-1.1,0.2-2.2,1.1-2.9c0.7-0.6,1.4-0.7,2.2-0.8c-1-0.6-1.4-1.5-1.4-2.6c0-0.7,0.2-1.4,0.7-2c1-1.1,3.6-1.1,5-1.1h1
			c1.5,0,3.3,0,4.7,0.5c0.8,0.3,1.5,0.8,1.8,1.6c0.2,0.7,0.2,1.5,0.2,2.2h-1.8c0-0.6,0-1.6-0.4-2.1c-0.2-0.2-0.3-0.3-0.6-0.3
			c-1-0.3-3.2-0.3-4.2-0.3c-0.8,0-2.8-0.1-3.6,0.2c-0.6,0.2-0.9,0.7-0.9,1.3c0,1.1,0.7,1.5,1.6,2c0.4,0.2,0.7,0.4,1.1,0.6l8.4,4.5
			c0.1-1,0.1-2,0.1-3h1.8v0.9c0,1-0.1,2-0.2,3l2.8,1.5L222.6,143z M208.6,135.6c-2.2,0.1-2.9,0.8-2.9,2.9c0,0.7,0.1,1.6,0.6,2.1
			c0.6,0.6,2.4,0.6,3.2,0.6c1.2,0,2.4,0.1,3.6,0.1c1.2,0,2.5,0,3.7-0.2c0.5-0.1,0.9-0.2,1.2-0.6L208.6,135.6z"/>
		<path fill="#DC0814" d="M242.3,143h-2.3l-3-8.3h-0.1l-3,8.3h-2.3l-4.5-9.7h1.7l3.8,8.3h0.2l2.9-8.3h2.4l3,8.3h0.2l3.8-8.3h1.8
			L242.3,143z"/>
		<path fill="#DC0814" d="M258,143l0-1.1h-0.1c-0.2,0.3-0.4,0.5-0.6,0.7c-0.9,0.7-2.7,0.6-3.8,0.6c-1.2,0-3.3,0.1-4.5-0.3
			c-0.4-0.1-0.7-0.3-0.9-0.6c-0.6-0.6-0.6-1.4-0.6-2.2c0-0.8,0.1-1.6,0.8-2.1c0.9-0.8,3.1-0.7,4.1-0.7c0.9,0,1.9,0,2.8,0.1
			c1,0,2,0.1,2.6,1h0.1v-1c0-0.7,0-1.3-0.5-1.8c-0.8-1-2.9-0.9-4-0.9c-0.8,0-3.1-0.1-3.7,0.6c-0.3,0.3-0.3,0.7-0.3,1.1h-1.6
			c0-0.1,0-0.3,0-0.4c0-0.6,0.1-1.1,0.5-1.5c0.9-1.2,3.7-1.1,5-1.1c1.5,0,4.1-0.1,5.3,1.1c0.3,0.3,0.4,0.6,0.6,1
			c0.3,0.8,0.2,1.6,0.2,2.4v5.4H258z M257.6,139.3c-0.7-0.8-3.1-0.7-4.1-0.7c-0.8,0-2.6-0.1-3.4,0.2c-0.8,0.2-1,0.8-1,1.5
			c0,0.7,0.3,1.2,1,1.4c0.9,0.2,2.7,0.2,3.7,0.2c0.9,0,3.1,0.1,3.8-0.7c0.2-0.3,0.3-0.6,0.3-1C257.9,139.8,257.8,139.5,257.6,139.3z
			"/>
		<path fill="#DC0814" d="M261.9,143v-14h1.6v14H261.9z"/>
		<path fill="#DC0814" d="M266,143v-14h1.6v14H266z"/>
	</g>
</g>
</svg>
