<?xml version="1.0" encoding="iso-8859-1"?>
<!-- Generator: Adobe Illustrator 16.0.0, SVG Export Plug-In . SVG Version: 6.00 Build 0)  -->
<!DOCTYPE svg PUBLIC "-//W3C//DTD SVG 1.1//EN" "http://www.w3.org/Graphics/SVG/1.1/DTD/svg11.dtd">
<svg xmlns="http://www.w3.org/2000/svg" xmlns:xlink="http://www.w3.org/1999/xlink" version="1.1" id="Capa_1" x="0px" y="0px" width="512px" height="512px" viewBox="0 0 74.588 74.588" style="enable-background:new 0 0 74.588 74.588;" xml:space="preserve">
<g>
	<g>
		<path d="M10.683,59.62c5.889,0,10.68-4.792,10.68-10.682c0-3.484-1.686-6.576-4.276-8.526l4.32-7.043l6.531,18.543    c0.013,0.034,0.026,0.069,0.043,0.104c0.09,0.185,2.272,4.521,8.188,3.959l9.278,0.043c0.129,0.021,0.332,0.045,0.594,0.045    c1.312,0,4.062-0.602,5.996-5.18l1.201-2.17c-0.002,0.076-0.012,0.146-0.012,0.227c0,5.889,4.791,10.682,10.68,10.682    c5.891,0,10.682-4.793,10.682-10.682c0-4.734-3.1-8.756-7.377-10.15c0.42,0.031,0.666,0.07,0.67,0.07    c0.057,0.01,0.107,0.014,0.16,0.014c0.564,0.051,1.023-0.438,1.023-1c0-0.301-0.131-0.57-0.342-0.752    c-0.349-0.433-0.813-0.992-1.416-1.545v-1.473c0-0.553-0.447-1-1-1h-2.402c-0.322,0-0.596,0.162-0.779,0.398    c-0.416-0.066-0.855-0.104-1.328-0.104c-2.143,0-4.559,0.788-7.18,2.338c-0.002,0.001-0.004,0.002-0.006,0.003    c-0.01,0.008-0.021,0.012-0.029,0.018c-2.047,1.215-4.273,1.832-6.627,1.832c-4.25,0-7.633-2.025-8.188-2.377    c-3.556-3.679-7.316-4.979-10.293-5.334l1.67-2.694H41.82v5.288c0,0.343,0.174,0.66,0.463,0.844    c1.887,1.204,3.9,1.789,6.156,1.789c0,0,0,0,0.002,0c2.715,0,5.393-0.854,7.979-1.68c2.558-0.814,4.974-1.584,7.375-1.584    c1.865,0,3.526,0.482,5.084,1.476c0.312,0.196,0.699,0.21,1.021,0.034c0.317-0.177,0.52-0.513,0.52-0.877V17.599    c0-0.343-0.176-0.66-0.463-0.844c-1.889-1.204-3.898-1.789-6.158-1.789c-2.715,0-5.393,0.854-7.98,1.68    c-2.557,0.814-4.971,1.584-7.375,1.584c-1.86,0-3.522-0.482-5.082-1.476c-0.309-0.194-0.696-0.208-1.021-0.034    c-0.317,0.177-0.521,0.513-0.521,0.878v7.587h-9.436l1.31-2.114h4.128c0.553,0,1-0.448,1-1c0-0.552-0.446-1-1-1h-4.685    c-0.039,0-0.071,0.018-0.109,0.021c-0.069,0.009-0.134,0.02-0.2,0.04c-0.061,0.021-0.115,0.046-0.171,0.077    c-0.056,0.031-0.107,0.064-0.156,0.105c-0.053,0.045-0.097,0.094-0.14,0.148c-0.023,0.029-0.055,0.047-0.074,0.079l-5.004,8.074    c-0.031,0.05-0.038,0.105-0.059,0.159c-1.58,0.037-2.941,0.294-3.968,0.57l6.182-10.076h5.852c0.554,0,1-0.448,1-1    c0-0.553-0.446-1-1-1h-6.412c-0.038,0-0.069,0.017-0.106,0.021c-0.071,0.008-0.137,0.02-0.205,0.041    c-0.061,0.021-0.113,0.046-0.168,0.076c-0.056,0.031-0.108,0.063-0.158,0.107c-0.053,0.044-0.096,0.094-0.138,0.147    c-0.024,0.03-0.057,0.049-0.077,0.083L15.381,39.364c-1.42-0.699-3.012-1.104-4.699-1.104C4.791,38.26,0,43.051,0,48.94    C0.001,54.829,4.792,59.62,10.683,59.62z M43.818,19.273c1.439,0.643,2.968,0.958,4.621,0.958c2.717,0,5.396-0.854,7.98-1.68    c2.559-0.814,4.973-1.584,7.375-1.584c1.684,0,3.199,0.393,4.621,1.197v12.637c-1.438-0.643-2.965-0.958-4.621-0.958    c-2.715,0-5.393,0.854-7.98,1.68c-2.557,0.814-4.973,1.584-7.375,1.585l0,0c-1.682,0-3.196-0.394-4.621-1.197v-4.723h0.613    l1.342,1.343c0.195,0.195,0.451,0.293,0.707,0.293c0.258,0,0.515-0.098,0.707-0.293c0.394-0.39,0.394-1.023,0-1.414l-0.93-0.929    l1.258-1.258c0.394-0.391,0.394-1.023,0-1.413c-0.393-0.392-1.021-0.392-1.414,0l-1.67,1.671h-0.613V19.273z M36.079,53.979    c-4.375,0.408-6.07-2.414-6.278-2.795L24.736,36.8c2.75,2.535,6.872,5.549,12.108,7.105c-0.004,0.051-0.021,0.098-0.016,0.146    l0.936,9.935L36.079,53.979z M50.257,49.964c-0.019,0.033-0.03,0.062-0.047,0.1c-1.869,4.463-4.347,4.002-4.431,3.986    c-0.077-0.021-0.157-0.029-0.237-0.029l-5.771-0.026l-0.9-9.571c1.611,0.34,3.314,0.537,5.105,0.537c0,0,0.002,0,0.004,0    c3.396-0.002,6.828-0.73,10.237-2.15L50.257,49.964z M72.583,48.94c0,4.787-3.896,8.682-8.683,8.682    c-4.785,0-8.682-3.895-8.682-8.682c0-2.768,1.305-5.229,3.324-6.818l2.004,3.266C59.602,46.284,59,47.538,59,48.942    c0,2.701,2.197,4.896,4.896,4.896c2.701,0,4.896-2.193,4.896-4.896c0-2.701-2.194-4.896-4.896-4.896    c-0.578,0-1.127,0.117-1.646,0.306l-2.006-3.272c1.108-0.519,2.344-0.816,3.647-0.816C68.689,40.259,72.583,44.153,72.583,48.94z     M61.636,47.157l1.414,2.305c0.188,0.311,0.521,0.479,0.854,0.479c0.179,0,0.355-0.047,0.521-0.146    c0.474-0.289,0.619-0.903,0.33-1.375l-1.42-2.315c0.185-0.037,0.373-0.058,0.565-0.058c1.601,0,2.896,1.299,2.896,2.896    c0,1.599-1.301,2.896-2.896,2.896c-1.596,0-2.896-1.3-2.896-2.896C61.005,48.265,61.247,47.649,61.636,47.157z M65.607,36.751    c-2.188,0.053-5.262,0.51-8.233,2.256c-1.565,0.922-3.146,1.676-4.72,2.275l3.101-3.891c2.263-1.319,4.293-1.992,6.043-1.992    C63.47,35.4,64.691,36.011,65.607,36.751z M51.857,39.071l-2.592,3.255c-1.771,0.415-3.537,0.632-5.291,0.634c0,0,0,0-0.002,0    c-1.844,0-3.588-0.244-5.234-0.641l1.066-4.785c1.59,0.822,4.563,2.055,8.148,2.055C49.294,39.589,50.6,39.415,51.857,39.071z     M27.612,31.77c3.886,0,7.383,1.541,10.416,4.55l-1.216,5.457c-6.848-2.27-11.661-7.205-13.511-9.357    C24.287,32.114,25.807,31.77,27.612,31.77z M10.683,40.259c1.305,0,2.539,0.299,3.649,0.815l-2.007,3.271    c-0.516-0.187-1.063-0.305-1.644-0.305c-2.7,0-4.897,2.195-4.897,4.896c0,2.7,2.197,4.896,4.897,4.896    c2.699,0,4.896-2.197,4.896-4.896c0-1.399-0.599-2.658-1.546-3.554l2.003-3.267c2.021,1.593,3.325,4.054,3.325,6.816    c0,4.787-3.894,8.684-8.68,8.684c-4.786,0-8.682-3.896-8.682-8.684C2.001,44.153,5.897,40.259,10.683,40.259z M13.58,48.94    c0,1.598-1.3,2.896-2.896,2.896c-1.598,0-2.897-1.301-2.897-2.896c0-1.6,1.3-2.896,2.897-2.896c0.194,0,0.384,0.021,0.567,0.059    L9.83,48.417c-0.289,0.471-0.141,1.086,0.33,1.375c0.163,0.102,0.343,0.146,0.521,0.146c0.336,0,0.665-0.168,0.854-0.479    l1.414-2.307C13.337,47.649,13.58,48.265,13.58,48.94z" fill="#FFFFFF"/>
		<path d="M44.848,45.929c-1.66,0-3.013,1.352-3.013,3.012s1.353,3.013,3.013,3.013c1.659,0,3.012-1.353,3.012-3.013    C47.857,47.278,46.507,45.929,44.848,45.929z M44.848,49.951c-0.56,0-1.013-0.454-1.013-1.013s0.453-1.012,1.013-1.012    c0.559,0,1.012,0.453,1.012,1.012C45.857,49.497,45.404,49.951,44.848,49.951z" fill="#FFFFFF"/>
		<path d="M15.801,35.098c0.044,0.005,0.087,0.008,0.129,0.008c0.344,0,0.666-0.177,0.851-0.474l4.903-7.921    c0.189-0.309,0.199-0.695,0.022-1.013c-0.177-0.318-0.512-0.513-0.874-0.513H15.93c-0.406,0-0.772,0.246-0.927,0.623    c-1.5,3.682-0.091,8.392-0.029,8.59C15.087,34.773,15.413,35.046,15.801,35.098z M16.642,27.186h2.396l-2.62,4.23    C16.271,30.158,16.233,28.589,16.642,27.186z" fill="#FFFFFF"/>
	</g>
</g>
<g>
</g>
<g>
</g>
<g>
</g>
<g>
</g>
<g>
</g>
<g>
</g>
<g>
</g>
<g>
</g>
<g>
</g>
<g>
</g>
<g>
</g>
<g>
</g>
<g>
</g>
<g>
</g>
<g>
</g>
</svg>
