<?xml version="1.0" encoding="iso-8859-1"?>
<!-- Generator: Adobe Illustrator 19.0.0, SVG Export Plug-In . SVG Version: 6.00 Build 0)  -->
<svg xmlns="http://www.w3.org/2000/svg" xmlns:xlink="http://www.w3.org/1999/xlink" version="1.1" id="Capa_1" x="0px" y="0px" viewBox="0 0 490 490" style="enable-background:new 0 0 490 490;" xml:space="preserve" width="512px" height="512px">
<g id="bold_copy_13_">
	<path d="M67.375,291.55l-33.688,71.739l84.219,9.157l4.594,85.505l78.094-36.643L252.656,490l45.937-68.692l71.969,35.111   l6.125-85.49l84.219-1.531l-30.625-70.223L490,245.766l-64.313-51.894l41.344-71.739l-87.281-7.626l-7.656-83.958l-73.5,35.112   L248.063,0l-47.469,67.161l-76.563-39.69l-4.594,87.021l-85.75,4.578l32.156,82.427L0,241.187L67.375,291.55z M94.371,190.365   l-16.767-42.982l43.457-2.327l27.501-1.47l1.455-27.501l2.083-39.567l34.392,17.824l23.704,12.281l15.404-21.805l23.52-33.274   l25.204,32.754l15.113,19.631l22.356-10.673l33.795-16.139l3.66,40.134l2.328,25.495l25.511,2.236l39.43,3.445l-17.364,30.135   l-13.077,22.678l20.381,16.446l36.275,29.262l-32.861,29.4l-16.507,14.761l8.851,20.304l12.296,28.19l-38.373,0.689l-27.991,0.505   l-2.006,27.93l-2.879,40.272l-31.237-15.236l-24.025-11.714l-14.853,22.218l-22.035,32.953l-26.092-34.438l-14.976-19.753   l-22.448,10.535l-36.949,17.334l-2.159-40.103l-1.394-25.985l-25.878-2.818l-41.574-4.502l15.45-32.922l10.612-22.601   l-19.998-14.945l-30.916-23.122l26.858-16.185l22.096-13.322L94.371,190.365z" fill="#FFFFFF"/>
	<path d="M226.885,295.363c-3.553-4.701-5.987-10.275-7.289-16.752l-31.651,3.399c2.419,15.94,7.993,28.282,16.736,37.01   c8.743,8.728,20.09,13.95,34.101,15.649v22.065h17.579v-22.678c15.772-2.251,28.083-8.406,36.949-18.436   c8.851-10.03,13.276-22.371,13.276-37.01c0-13.092-3.507-23.826-10.55-32.202c-7.028-8.361-20.258-15.175-39.675-20.442v-47.438   c7.855,3.399,12.694,9.877,14.562,19.416l30.686-3.997c-2.098-12.127-6.952-21.82-14.547-29.048   c-7.61-7.243-17.839-11.622-30.701-13.169v-12.02h-17.579v12.005c-13.904,1.378-25.051,6.569-33.427,15.588   c-8.376,9.019-12.556,20.167-12.556,33.427c0,13.107,3.706,24.24,11.117,33.427c7.396,9.172,19.018,16.032,34.867,20.565v50.838   C234.404,303.448,230.438,300.048,226.885,295.363z M256.362,259.93c7.289,2.113,12.51,5.114,15.71,9.034   c3.2,3.92,4.778,8.59,4.778,14.011c0,6.064-1.899,11.347-5.696,15.833c-3.798,4.487-8.728,7.304-14.807,8.437V259.93H256.362z    M227.008,211.236c-2.588-3.675-3.874-7.656-3.874-11.944c0-4.686,1.409-8.973,4.226-12.863c2.848-3.874,6.646-6.63,11.408-8.253   v41.971C233.516,217.882,229.596,214.911,227.008,211.236z" fill="#FFFFFF"/>
</g>
<g>
</g>
<g>
</g>
<g>
</g>
<g>
</g>
<g>
</g>
<g>
</g>
<g>
</g>
<g>
</g>
<g>
</g>
<g>
</g>
<g>
</g>
<g>
</g>
<g>
</g>
<g>
</g>
<g>
</g>
</svg>
