<?xml version="1.0" encoding="iso-8859-1"?>
<!-- Generator: Adobe Illustrator 19.0.0, SVG Export Plug-In . SVG Version: 6.00 Build 0)  -->
<svg xmlns="http://www.w3.org/2000/svg" xmlns:xlink="http://www.w3.org/1999/xlink" version="1.1" id="Capa_1" x="0px" y="0px" viewBox="0 0 484.993 484.993" style="enable-background:new 0 0 484.993 484.993;" xml:space="preserve" width="512px" height="512px">
<g>
	<path d="M318.796,30h-61.299V0h-30v30h-61.299l-97.779,91.621v363.372h348.156V121.621L318.796,30z M386.574,454.992H98.419   v-320.37L178.058,60h49.439v83.122h30V60h49.439l79.639,74.623V454.992z" fill="#FFFFFF"/>
	<path d="M231.68,248.567c0-24.813-20.187-45-45-45s-45,20.187-45,45s20.187,45,45,45S231.68,273.38,231.68,248.567z    M171.68,248.567c0-8.271,6.729-15,15-15s15,6.729,15,15c0,8.271-6.729,15-15,15S171.68,256.838,171.68,248.567z" fill="#FFFFFF"/>
	<path d="M253.313,360.2c0,24.813,20.187,45,45,45s45-20.187,45-45s-20.187-45-45-45S253.313,335.387,253.313,360.2z M313.313,360.2   c0,8.271-6.729,15-15,15s-15-6.729-15-15s6.729-15,15-15S313.313,351.929,313.313,360.2z" fill="#FFFFFF"/>
	<path d="M184.025,384.071l-21.213-21.213l138.155-138.155l21.213,21.213L184.025,384.071z" fill="#FFFFFF"/>
</g>
<g>
</g>
<g>
</g>
<g>
</g>
<g>
</g>
<g>
</g>
<g>
</g>
<g>
</g>
<g>
</g>
<g>
</g>
<g>
</g>
<g>
</g>
<g>
</g>
<g>
</g>
<g>
</g>
<g>
</g>
</svg>
