<?xml version="1.0" encoding="iso-8859-1"?>
<!-- Generator: Adobe Illustrator 16.0.0, SVG Export Plug-In . SVG Version: 6.00 Build 0)  -->
<!DOCTYPE svg PUBLIC "-//W3C//DTD SVG 1.1//EN" "http://www.w3.org/Graphics/SVG/1.1/DTD/svg11.dtd">
<svg version="1.1" id="Capa_1" xmlns="http://www.w3.org/2000/svg" xmlns:xlink="http://www.w3.org/1999/xlink" x="0px" y="0px"
	 width="612.01px" height="612.01px" viewBox="0 0 612.01 612.01" style="enable-background:new 0 0 612.01 612.01;"
	 xml:space="preserve">
<g>
	<g>
		<path d="M472.452,593.334H139.558c-22.592,0-42.06-16.09-46.267-38.247L42.393,334.435H28.599C12.833,334.435,0,321.601,0,305.835
			v-55.459c0-15.766,12.833-28.599,28.599-28.599H86.9L279.247,29.431c14.31-14.35,39.198-14.33,53.527,0l192.357,192.347h58.28
			c15.776,0,28.599,12.833,28.599,28.599v55.459c0,15.776-12.833,28.599-28.599,28.599h-13.814l-50.969,221.047
			C514.462,577.244,495.015,593.334,472.452,593.334z M28.599,241.993c-4.622,0-8.374,3.752-8.374,8.374v55.459
			c0,4.621,3.752,8.373,8.374,8.373h21.844c4.713,0,8.798,3.246,9.86,7.838l52.779,228.884
			c2.478,13.016,13.582,22.178,26.476,22.178h332.895c12.864,0,23.958-9.162,26.364-21.803l52.86-229.259
			c1.052-4.592,5.147-7.838,9.86-7.838H583.4c4.622,0,8.374-3.752,8.374-8.373v-55.459c0-4.622-3.752-8.374-8.374-8.374h-62.537
			c-2.862,0-5.603-1.213-7.515-3.347l-0.809-0.86L318.464,43.73c-6.674-6.674-18.223-6.695-24.918-0.01L99.338,237.887
			c-1.931,2.265-5.238,4.106-8.201,4.106H28.599z M416.154,496.888H193.671c-5.592,0-10.113-4.521-10.113-10.113
			s4.521-10.113,10.113-10.113h222.483c5.593,0,10.113,4.521,10.113,10.113S421.747,496.888,416.154,496.888z M446.493,426.098
			h-283.16c-5.593,0-10.113-4.521-10.113-10.113s4.521-10.113,10.113-10.113h283.16c5.592,0,10.112,4.521,10.112,10.113
			S452.085,426.098,446.493,426.098z M456.605,355.308H132.994c-5.592,0-10.113-4.521-10.113-10.113s4.521-10.113,10.113-10.113
			h323.611c5.593,0,10.113,4.521,10.113,10.113S462.198,355.308,456.605,355.308z M442.468,241.993H169.542
			c-4.085,0-7.777-2.458-9.344-6.24s-0.698-8.131,2.194-11.023L298.835,88.247c3.792-3.792,10.507-3.792,14.3,0L449.618,224.73
			c2.892,2.892,3.762,7.241,2.194,11.023S446.554,241.993,442.468,241.993z M193.955,221.768h224.101L305.985,109.697
			L193.955,221.768z"/>
	</g>
</g>
<g>
</g>
<g>
</g>
<g>
</g>
<g>
</g>
<g>
</g>
<g>
</g>
<g>
</g>
<g>
</g>
<g>
</g>
<g>
</g>
<g>
</g>
<g>
</g>
<g>
</g>
<g>
</g>
<g>
</g>
</svg>
