<svg id="eb27c3fc-c2b9-4e71-b2aa-a8cb62d6ad96" data-name="Слой 1" xmlns="http://www.w3.org/2000/svg" viewBox="0 0 115.42 110.5">
  <title>Скидка</title>
  <path d="M25.11,156.77l-5.12.76a1.52,1.52,0,0,0-1.3,1.41l-0.34,5.16a1.52,1.52,0,0,1-1.77,1.4l-5.1-.86a1.52,1.52,0,0,0-1.67.94l-1.92,4.8a1.52,1.52,0,0,1-2.12.78l-4.59-2.39a1.52,1.52,0,0,0-1.88.38l-3.31,4a1.52,1.52,0,0,1-2.26.09l-3.62-3.69a1.52,1.52,0,0,0-1.9-.22l-4.38,2.76a1.52,1.52,0,0,1-2.18-.61l-2.3-4.63a1.52,1.52,0,0,0-1.74-.8l-5,1.27A1.52,1.52,0,0,1-29.28,166L-30,160.9a1.52,1.52,0,0,0-1.41-1.3l-5.16-.34a1.52,1.52,0,0,1-1.4-1.77l0.86-5.1a1.52,1.52,0,0,0-.94-1.67l-4.8-1.92a1.52,1.52,0,0,1-.78-2.12l2.39-4.59a1.52,1.52,0,0,0-.38-1.88l-4-3.31a1.52,1.52,0,0,1-.09-2.26L-42,131a1.52,1.52,0,0,0,.22-1.9l-2.76-4.38a1.52,1.52,0,0,1,.61-2.18l4.63-2.3a1.52,1.52,0,0,0,.8-1.74l-1.27-5a1.52,1.52,0,0,1,1.25-1.88l5.12-.76a1.52,1.52,0,0,0,1.3-1.41l0.34-5.16A1.52,1.52,0,0,1-30,102.9l5.1,0.86a1.52,1.52,0,0,0,1.67-.94l1.92-4.8a1.52,1.52,0,0,1,2.12-.78l4.59,2.39a1.52,1.52,0,0,0,1.88-.38l3.31-4a1.52,1.52,0,0,1,2.26-.09l3.62,3.69a1.52,1.52,0,0,0,1.9.22l4.38-2.76A1.52,1.52,0,0,1,4.92,97l2.3,4.63a1.52,1.52,0,0,0,1.74.8l5-1.27a1.52,1.52,0,0,1,1.88,1.25l0.76,5.12a1.52,1.52,0,0,0,1.41,1.3l5.16,0.34a1.52,1.52,0,0,1,1.4,1.77L23.73,116a1.52,1.52,0,0,0,.94,1.67l4.8,1.92a1.52,1.52,0,0,1,.78,2.12l-2.39,4.59a1.52,1.52,0,0,0,.38,1.88l4,3.31a1.52,1.52,0,0,1,.09,2.26l-3.69,3.62a1.52,1.52,0,0,0-.22,1.9l2.76,4.38a1.52,1.52,0,0,1-.61,2.18l-4.63,2.3a1.52,1.52,0,0,0-.8,1.74l1.27,5A1.52,1.52,0,0,1,25.11,156.77Z" transform="translate(46.18 -94.73)" style="fill: #e6e6e6"/>
  <path d="M10.4,154l4.11-.61a1.32,1.32,0,0,0,1.13-1.22L15.92,148a1.32,1.32,0,0,1,1.54-1.22l4.1,0.69a1.32,1.32,0,0,0,1.45-.81l1.55-3.86a1.32,1.32,0,0,1,1.84-.68L30.07,144a1.32,1.32,0,0,0,1.63-.33l2.66-3.19a1.32,1.32,0,0,1,2-.08l2.91,3a1.32,1.32,0,0,0,1.65.19l3.52-2.21a1.32,1.32,0,0,1,1.89.53l1.85,3.72a1.32,1.32,0,0,0,1.51.69l4-1a1.32,1.32,0,0,1,1.63,1.09l0.61,4.11a1.32,1.32,0,0,0,1.22,1.13l4.15,0.28a1.32,1.32,0,0,1,1.22,1.54l-0.69,4.1a1.32,1.32,0,0,0,.81,1.45l3.86,1.55a1.32,1.32,0,0,1,.68,1.84l-1.92,3.69a1.32,1.32,0,0,0,.33,1.63l3.19,2.66a1.32,1.32,0,0,1,.08,2l-3,2.91a1.32,1.32,0,0,0-.19,1.65l2.21,3.52a1.32,1.32,0,0,1-.53,1.89l-3.72,1.85a1.32,1.32,0,0,0-.69,1.51l1,4a1.32,1.32,0,0,1-1.09,1.63l-4.11.61a1.32,1.32,0,0,0-1.13,1.22l-0.28,4.15a1.32,1.32,0,0,1-1.54,1.22l-4.1-.69a1.32,1.32,0,0,0-1.45.81l-1.55,3.86a1.32,1.32,0,0,1-1.84.68l-3.69-1.92a1.32,1.32,0,0,0-1.63.33l-2.66,3.19a1.32,1.32,0,0,1-2,.08l-2.91-3a1.32,1.32,0,0,0-1.65-.19l-3.52,2.21a1.32,1.32,0,0,1-1.89-.53l-1.85-3.72a1.32,1.32,0,0,0-1.51-.69l-4,1A1.32,1.32,0,0,1,18,198.87l-0.61-4.11a1.32,1.32,0,0,0-1.22-1.13L12,193.36a1.32,1.32,0,0,1-1.22-1.54l0.69-4.1a1.32,1.32,0,0,0-.81-1.45l-3.86-1.55a1.32,1.32,0,0,1-.68-1.84L8,179.2a1.32,1.32,0,0,0-.33-1.63l-3.19-2.66a1.32,1.32,0,0,1-.08-2l3-2.91a1.32,1.32,0,0,0,.19-1.65l-2.21-3.52A1.32,1.32,0,0,1,5.92,163l3.72-1.85a1.32,1.32,0,0,0,.69-1.51l-1-4A1.32,1.32,0,0,1,10.4,154Z" transform="translate(46.18 -94.73)" style="fill: #5ec577"/>
  <text transform="translate(23.98 28.59)" style="font-size: 12px;font-family: Myriad Pro">И <tspan x="10.44" y="0">Э</tspan><tspan x="17.16" y="0">Т</tspan><tspan x="22.7" y="0">О</tspan><tspan x="4.4" y="14.4">ЕЩЕ</tspan><tspan x="-2.29" y="28.8">НЕ </tspan><tspan x="13.99" y="28.8">В</tspan><tspan x="20.39" y="28.8">СЕ</tspan></text>
  <text transform="translate(68.31 77.49)" style="font-size: 18px;font-family: Myriad Pro">-5%<tspan style="font-size: 6px"><tspan x="2.4" y="7.2">о</tspan><tspan x="5.65" y="7.2">т </tspan><tspan x="9.39" y="7.2">с</tspan><tspan x="12.16" y="7.2">у</tspan><tspan x="14.95" y="7.2">ммы</tspan><tspan x="2.24" y="14.4">д</tspan><tspan x="5.4" y="14.4">о</tspan><tspan x="8.69" y="14.4">г</tspan><tspan x="10.88" y="14.4">овора</tspan></tspan></text>
</svg>
