<svg id="cb04b8e4-0323-4d84-80e0-2a11e4f0b767" data-name="Слой 1" xmlns="http://www.w3.org/2000/svg" xmlns:xlink="http://www.w3.org/1999/xlink" viewBox="0 0 200 191.61">
  <title>Скидка</title>
  <g>
    <rect x="14.06" y="87.54" width="9.1" height="9.1" style="fill: #fff;stroke: #000;stroke-linecap: square;stroke-miterlimit: 10;stroke-width: 0.11813349732782548px"/>
    <image width="11" height="10" transform="matrix(1.52, 0, 0, -1.25, 12.18, 99.72)" xlink:href="Скидка1.png"/>
    <path d="M58.57,75.87l-9,1.3a2.64,2.64,0,0,0-2.24,2.36l-0.59,9A2.52,2.52,0,0,1,44.16,91H43.68l-8.74-1.54H34.47A2.67,2.67,0,0,0,32,91.11l-3.31,8.27A2.56,2.56,0,0,1,26.2,101,4.2,4.2,0,0,1,25,100.8L17.1,96.66a2.59,2.59,0,0,0-3.31.59l-5.79,7a2.52,2.52,0,0,1-2,.95,3,3,0,0,1-1.89-.83L-2.15,98A2.79,2.79,0,0,0-4,97.13a2.27,2.27,0,0,0-1.42.47L-13,102.33a2.89,2.89,0,0,1-1.42.47,2.72,2.72,0,0,1-2.36-1.54l-4-8a2.55,2.55,0,0,0-2.36-1.42,1.28,1.28,0,0,0-.59.12l-8.62,2.13a1.5,1.5,0,0,1-.71.12,2.67,2.67,0,0,1-2.6-2.36L-37,83a2.64,2.64,0,0,0-2.36-2.24l-9-.59a2.6,2.6,0,0,1-2.48-2.6V77.05l1.54-8.86V67.72a2.41,2.41,0,0,0-1.65-2.36L-59.21,62a2.67,2.67,0,0,1-1.65-2.48,3.49,3.49,0,0,1,.24-1.18l4.13-8a2.28,2.28,0,0,0,.35-1.18,2.52,2.52,0,0,0-.95-2l-7-5.79a2.52,2.52,0,0,1-.95-2,2.79,2.79,0,0,1,.83-1.89l6.38-6.26A2.52,2.52,0,0,0-57,29.33a1.88,1.88,0,0,0-.47-1.42l-4.73-7.68a2.52,2.52,0,0,1-.35-1.42,2.6,2.6,0,0,1,1.42-2.36l8-3.9a2.84,2.84,0,0,0,1.42-2.36V9.48L-53.9.85C-53.9.62-54,.38-54,0.15a2.66,2.66,0,0,1,2.24-2.6l8.86-1.3a2.45,2.45,0,0,0,2.24-2.48l0.59-8.86a2.71,2.71,0,0,1,2.72-2.48H-37L-28.14-16h0.47a2.67,2.67,0,0,0,2.48-1.65L-21.88-26a2.41,2.41,0,0,1,2.36-1.65,4.25,4.25,0,0,1,1.3.24l7.91,4.13a2.38,2.38,0,0,0,1.3.35,2.91,2.91,0,0,0,2-.95l5.67-7a2.91,2.91,0,0,1,2-.95,2.79,2.79,0,0,1,1.89.83L9-24.54a2.51,2.51,0,0,0,1.77.83,2.53,2.53,0,0,0,1.42-.47l7.68-4.73a2.38,2.38,0,0,1,1.3-.35,2.47,2.47,0,0,1,2.36,1.54l4,8a2.84,2.84,0,0,0,2.36,1.42,1.5,1.5,0,0,0,.71-0.12l8.62-2.13a1.5,1.5,0,0,1,.71-0.12,2.66,2.66,0,0,1,2.6,2.24l1.3,8.86A2.43,2.43,0,0,0,46.16-7.3l9,0.59A2.71,2.71,0,0,1,57.62-4v0.35L56.09,5.23V5.58a2.73,2.73,0,0,0,1.65,2.48l8.39,3.31a2.87,2.87,0,0,1,1.65,2.48A2.28,2.28,0,0,1,67.43,15l-4.13,8a2,2,0,0,0-.35,1.18,2.52,2.52,0,0,0,.95,2l7,5.79a2.52,2.52,0,0,1,.95,2A2.35,2.35,0,0,1,71,35.94L64.59,42.2a2.68,2.68,0,0,0-.71,1.89,3.15,3.15,0,0,0,.35,1.42l4.84,7.56a3.15,3.15,0,0,1,.35,1.42A2.69,2.69,0,0,1,68,56.85l-8,4a2.58,2.58,0,0,0-1.54,2.36c0,0.24.12,0.35,0.12,0.59l2.24,8.74v0.59a2.49,2.49,0,0,1-2.24,2.6v0.12Z" transform="translate(65 31.75)" style="fill: #e6e6e6;fill-rule: evenodd"/>
    <path d="M33.05,71L40.14,70a2.38,2.38,0,0,0,2-2.13l0.47-7.21a2.22,2.22,0,0,1,2.24-2.13h0.35l7.21,1.18h0.35a2.16,2.16,0,0,0,2.13-1.42l2.72-6.62a2.13,2.13,0,0,1,2-1.54,2,2,0,0,1,1.18.35l6.26,3.19a1.76,1.76,0,0,0,1.06.24,2,2,0,0,0,1.77-.83l4.61-5.43a2.43,2.43,0,0,1,1.77-.95,2.4,2.4,0,0,1,1.77.71l5,5.2a2.33,2.33,0,0,0,1.65.71A2,2,0,0,0,85.86,53L92,49.17a2.28,2.28,0,0,1,1.18-.35,2.23,2.23,0,0,1,2.13,1.3L98.5,56.5a2.18,2.18,0,0,0,2,1.3,0.89,0.89,0,0,0,.59-0.12l7-1.65a0.89,0.89,0,0,1,.59-0.12,2.38,2.38,0,0,1,2.24,2L112,65a2.08,2.08,0,0,0,2.13,1.89l7.09,0.59a2.24,2.24,0,0,1,2.24,2.24c0,0.12-.12.24-0.12,0.35l-1.18,7.09v0.47a2.47,2.47,0,0,0,1.42,2.13l6.73,2.6a2.33,2.33,0,0,1,1.42,2.13,3.45,3.45,0,0,1-.24,1.06L128,91.94a3.45,3.45,0,0,0-.24,1.06,2.31,2.31,0,0,0,.83,1.77l5.55,4.61a2.28,2.28,0,0,1,.83,1.77,2.4,2.4,0,0,1-.71,1.77l-5.2,5a3,3,0,0,0-.71,1.65,3.47,3.47,0,0,0,.35,1.18l3.9,6.14A2.28,2.28,0,0,1,133,118a2.23,2.23,0,0,1-1.3,2.13l-6.38,3.19a2.18,2.18,0,0,0-1.3,2V126l1.77,7a5.12,5.12,0,0,1,.12.59,2.38,2.38,0,0,1-2,2.24l-7.09,1.06a2.28,2.28,0,0,0-2,2.13L114.33,146a2.24,2.24,0,0,1-2.24,2.24c-0.12,0-.24-0.12-0.35-0.12L104.52,147h-0.35A2.33,2.33,0,0,0,102,148.4l-2.72,6.73a2.33,2.33,0,0,1-2.13,1.42,3.45,3.45,0,0,1-1.06-.24l-6.38-3.43a2.82,2.82,0,0,0-1.06-.24,2.75,2.75,0,0,0-1.77.83L82.31,159a2,2,0,0,1-1.77.83,2.33,2.33,0,0,1-1.65-.71L73.81,154a2.34,2.34,0,0,0-1.54-.71,4.19,4.19,0,0,0-1.3.35l-6,3.9a2.69,2.69,0,0,1-1.3.35,2.18,2.18,0,0,1-2-1.3l-3.19-6.38a2.35,2.35,0,0,0-2.13-1.3H55.85l-7,1.77H48.41a2.38,2.38,0,0,1-2.24-1.89l-1.06-7.09a2.28,2.28,0,0,0-2.13-2l-7.21-.47a2.22,2.22,0,0,1-2.13-2.24v-0.35l1.3-7.21V129a2.33,2.33,0,0,0-1.42-2.13l-6.73-2.72a2.21,2.21,0,0,1-1.42-2.13,3.45,3.45,0,0,1,.24-1.06l3.31-6.38a2.23,2.23,0,0,0,.24-0.95,2.31,2.31,0,0,0-.83-1.77l-5.55-4.61a2.43,2.43,0,0,1-.12-3.54l5.2-5a2.33,2.33,0,0,0,.71-1.65,2.38,2.38,0,0,0-.35-1.3l-3.9-6a4.2,4.2,0,0,1-.24-1.18,2.29,2.29,0,0,1,1.18-2l6.5-3.19a2.48,2.48,0,0,0,1.18-2.13V80.83l-1.77-7c0-.24-0.12-0.35-0.12-0.59a2.2,2.2,0,0,1,2-2.24h0Z" transform="translate(65 31.75)" style="fill: #5ec577;fill-rule: evenodd"/>
    <path d="M-12.08,23.06h-1.65V13.38l-5.91,9.69h-1.65V10.9h1.54v9.57l5.91-9.57h1.77V23.06ZM4.58,12.31A7.37,7.37,0,0,1,5.76,14.2a9.47,9.47,0,0,1,.35,2.72,9.21,9.21,0,0,1-.35,2.6,5.9,5.9,0,0,1-1.3,2,4.2,4.2,0,0,1-1.89,1.3,7.72,7.72,0,0,1-2.48.47A13,13,0,0,1-2,23.06a6.23,6.23,0,0,1-1.77-.59V20.7h0.12A4.36,4.36,0,0,0-2,21.53a6.69,6.69,0,0,0,2.13.35A4.9,4.9,0,0,0,2,21.53a4.25,4.25,0,0,0,1.42-.95,4.42,4.42,0,0,0,.83-1.42,4.9,4.9,0,0,0,.35-1.89H-2V15.86h6.5A6.77,6.77,0,0,0,4,14.2,3.22,3.22,0,0,0,3,13a2.82,2.82,0,0,0-1.3-.71,7,7,0,0,0-1.65-.24,5.52,5.52,0,0,0-2,.35,6.17,6.17,0,0,0-1.77.83H-3.81V11.49c0.59-.24,1.18-0.35,1.77-0.59a12.84,12.84,0,0,1,2.13-.12,9.21,9.21,0,0,1,2.6.35,4.62,4.62,0,0,1,1.89,1.18h0Zm12.76,0.12H13.09V23.06H11.43V12.43H7.06V10.9H17.34v1.54ZM28,12.31a4.33,4.33,0,0,1,1.18,2A9.47,9.47,0,0,1,29.51,17a8.64,8.64,0,0,1-.35,2.6,3.82,3.82,0,0,1-1.18,2,5.75,5.75,0,0,1-1.65,1.3,8.05,8.05,0,0,1-4.73,0,4.93,4.93,0,0,1-1.77-1.3,4.64,4.64,0,0,1-1.06-2,6,6,0,0,1-.47-2.6,9.47,9.47,0,0,1,.35-2.72,11.22,11.22,0,0,1,1.18-2,4.67,4.67,0,0,1,1.77-1.18A5.29,5.29,0,0,1,24,10.66a5.29,5.29,0,0,1,4,1.65h0ZM27.85,17a5.42,5.42,0,0,0-1.06-3.66A3.59,3.59,0,0,0,24,12.08a3.67,3.67,0,0,0-3,1.3A5.42,5.42,0,0,0,19.94,17,5.86,5.86,0,0,0,21,20.7a3.92,3.92,0,0,0,3,1.18,3.5,3.5,0,0,0,2.84-1.18A5.86,5.86,0,0,0,27.85,17h0ZM-5.93,43.26h-7.91v-12h7.91v1.42h-6.26v3.31h6.26v1.42h-6.26v4.49h6.26v1.42Zm16.18,0H-3.33v-12h1.65V42H2.81V31.22H4.46V42H9V31.22h1.65V42h1.18V46.1H10.25V43.26Zm11.81,0H14.15v-12h7.91v1.42H15.69v3.31h6.38v1.42H15.69v4.49h6.38v1.42ZM-19.87,63.58h-1.65V57.68h-6v5.91h-1.54V51.42h1.54v4.84h6V51.42h1.65V63.58Zm11.22,0h-7.91V51.42h7.91V53H-15v3.31h6.38v1.42H-15v4.49h6.38v1.42ZM9,59.8a3.77,3.77,0,0,1-.35,1.65,4.63,4.63,0,0,1-.95,1.18,3.66,3.66,0,0,1-1.54.71,8.48,8.48,0,0,1-2,.24H-0.26V51.42H3.4c0.83,0,1.54.12,2,.12A4.94,4.94,0,0,1,6.59,52a2.57,2.57,0,0,1,1.06.83,4.25,4.25,0,0,1,.24,1.3,2.37,2.37,0,0,1-.47,1.54,2.47,2.47,0,0,1-1.18.95v0.12a3.06,3.06,0,0,1,2,1.06,2.78,2.78,0,0,1,.71,2H9ZM6.23,54.37c0-.24-0.12-0.47-0.12-0.71a1.78,1.78,0,0,0-.47-0.47A2.78,2.78,0,0,0,4.7,53a4.87,4.87,0,0,0-1.42-.12H1.39v3.54H3.52c0.47,0,.83-0.12,1.18-0.12a2.5,2.5,0,0,0,.83-0.35,1.42,1.42,0,0,0,.59-0.59c0-.24.12-0.59,0.12-0.95h0ZM7.3,59.92a3,3,0,0,0-.24-1.18A5.14,5.14,0,0,0,6.23,58a2.23,2.23,0,0,0-.95-0.24,4.87,4.87,0,0,0-1.42-.12H1.39v4.49H3.52A7.82,7.82,0,0,0,5.29,62a2.24,2.24,0,0,0,1.06-.35A2,2,0,0,0,7.06,61a3.45,3.45,0,0,0,.24-1.06h0Zm13.23,2.72a3,3,0,0,1-.83.47,4,4,0,0,1-.95.35,6,6,0,0,0-1.06.24c-0.35,0-.83.12-1.3,0.12A7.62,7.62,0,0,1,14,63.47a6.35,6.35,0,0,1-1.89-1.18,5.65,5.65,0,0,1-1.18-2,8,8,0,0,1,0-5.43,5.65,5.65,0,0,1,1.18-2A5.14,5.14,0,0,1,14,51.65a7.62,7.62,0,0,1,2.36-.35,5.85,5.85,0,0,1,2,.24,6.05,6.05,0,0,1,2.13.83v1.89H20.41a5,5,0,0,0-2-1.18,3.88,3.88,0,0,0-2-.47,3.43,3.43,0,0,0-1.65.35,3.56,3.56,0,0,0-2.24,2.48,6.56,6.56,0,0,0,0,4.25,3.8,3.8,0,0,0,.95,1.54,3.06,3.06,0,0,0,1.3.83,3.77,3.77,0,0,0,1.65.35A6.69,6.69,0,0,0,18.52,62a10.2,10.2,0,0,0,1.89-1.18h0.12v1.77Zm10.28,0.95H22.89V51.42h7.91V53H24.43v3.31h6.38v1.42H24.43v4.49h6.38v1.42ZM36,51.42l-0.24,8.86H34.35l-0.24-8.86H36ZM35.89,63.58H34.23V61.81h1.65v1.77Z" transform="translate(65 31.75)"/>
    <path d="M56.8,89H47V86.15H56.8V89ZM77.59,90.4A8.87,8.87,0,0,1,77,93.47a8.18,8.18,0,0,1-1.65,2.6,8,8,0,0,1-2.72,1.65,9.18,9.18,0,0,1-3.66.59A19.55,19.55,0,0,1,65.18,98a14.5,14.5,0,0,1-3-.95V93.59h0.12A12.22,12.22,0,0,0,65.42,95a9.11,9.11,0,0,0,3.43.59,13.08,13.08,0,0,0,2.24-.24A4.62,4.62,0,0,0,73,94.18a5.53,5.53,0,0,0,.95-1.65,6.56,6.56,0,0,0,0-4.25A4.09,4.09,0,0,0,72.74,87a3.84,3.84,0,0,0-2-.83,9.27,9.27,0,0,0-2.6-.24,20,20,0,0,0-2.72.12,10.66,10.66,0,0,0-2.24.47V74.33H77.35v2.72H66.25v6.26a5.75,5.75,0,0,0,1.42-.12h1.18a14.54,14.54,0,0,1,3.43.35,7.38,7.38,0,0,1,2.6,1.18,5.32,5.32,0,0,1,2,2.24,7,7,0,0,1,.71,3.43h0Zm16.3-9.57A7.79,7.79,0,0,1,92.35,86,5.53,5.53,0,0,1,88,87.8,5.12,5.12,0,0,1,83.73,86c-1.06-1.06-1.54-2.84-1.54-5.2s0.47-4.13,1.54-5.32A5.6,5.6,0,0,1,88,73.86a5.21,5.21,0,0,1,4.37,1.77,7.79,7.79,0,0,1,1.54,5.2h0Zm10.87-6.5L92.47,97.84h-2.6l12.29-23.51h2.6Zm7.68,17a8.38,8.38,0,0,1-1.54,5.32,5.88,5.88,0,0,1-4.37,1.65,5.42,5.42,0,0,1-4.25-1.65c-1.06-1.18-1.54-3-1.54-5.32s0.47-4.13,1.54-5.2a5.12,5.12,0,0,1,4.25-1.77,5.21,5.21,0,0,1,4.37,1.77,7.79,7.79,0,0,1,1.54,5.2h0ZM91.05,80.83a7.34,7.34,0,0,0-.71-3.78A2.67,2.67,0,0,0,88,76a2.46,2.46,0,0,0-2.24,1.06A7.34,7.34,0,0,0,85,80.83a7.34,7.34,0,0,0,.71,3.78A2.46,2.46,0,0,0,88,85.67a2.67,2.67,0,0,0,2.36-1.06,7.34,7.34,0,0,0,.71-3.78h0ZM109.6,91.35a7.34,7.34,0,0,0-.71-3.78,2.67,2.67,0,0,0-2.36-1.06,2.46,2.46,0,0,0-2.24,1.06,7.34,7.34,0,0,0-.71,3.78,7.05,7.05,0,0,0,.71,3.78,2.46,2.46,0,0,0,2.24,1.06,2.67,2.67,0,0,0,2.36-1.06,7.05,7.05,0,0,0,.71-3.78h0Zm-57.53,17.6a4.08,4.08,0,0,1,.83,1.42,9.18,9.18,0,0,1,.24,1.89,4.9,4.9,0,0,1-.35,1.89,2.69,2.69,0,0,1-.71,1.42,4.88,4.88,0,0,1-1.3.83,4,4,0,0,1-3.31,0,4.24,4.24,0,0,1-1.18-.83,2.84,2.84,0,0,1-.83-1.42,7.68,7.68,0,0,1,0-3.78,2.84,2.84,0,0,1,.83-1.42,2.7,2.7,0,0,1,1.18-.83,4.17,4.17,0,0,1,1.65-.35,3.77,3.77,0,0,1,1.65.35,3.06,3.06,0,0,1,1.3.83h0ZM52,112.25a4,4,0,0,0-.71-2.6,2.77,2.77,0,0,0-2.13-.95,2.52,2.52,0,0,0-2,.95,4,4,0,0,0-.71,2.6,4.24,4.24,0,0,0,.71,2.6,2.85,2.85,0,0,0,4,0,3.63,3.63,0,0,0,.83-2.6h0Zm9.1-3.31H58v7.56H56.8v-7.56h-3V108H61v0.95Zm11.93,7a3,3,0,0,0-.59.24,2.38,2.38,0,0,1-.71.24c-0.24.12-.47,0.12-0.71,0.24H70a3.75,3.75,0,0,1-1.65-.24,3.06,3.06,0,0,1-1.3-.83,3,3,0,0,1-.95-1.42,8.22,8.22,0,0,1-.24-1.89,9.18,9.18,0,0,1,.24-1.89,3,3,0,0,1,.95-1.42,2.48,2.48,0,0,1,1.3-.83,3.77,3.77,0,0,1,1.65-.35,5.93,5.93,0,0,1,1.42.24,5.06,5.06,0,0,1,1.54.59v1.3H72.86a4.42,4.42,0,0,0-1.42-.83,3,3,0,0,0-1.42-.24,3.64,3.64,0,0,0-1.18.12,2.84,2.84,0,0,0-.95.71,2.28,2.28,0,0,0-.59,1.06,5.11,5.11,0,0,0,0,3.07,2.28,2.28,0,0,0,.59,1.06,2.57,2.57,0,0,0,.95.59,3.5,3.5,0,0,0,1.18.24,6.91,6.91,0,0,0,1.54-.24,4.88,4.88,0,0,0,1.3-.83H73v1.3ZM80.66,108l-3.31,7.21a2.47,2.47,0,0,1-.47.71,2.58,2.58,0,0,1-.59.35,0.9,0.9,0,0,1-.47.24H74.28v-1.06h0.35a2.68,2.68,0,0,0,.47.12,0.41,0.41,0,0,1,.24-0.12h0.47c0.12-.12.24-0.12,0.35-0.24a0.61,0.61,0,0,0,.24-0.47l0.24-.47L73.45,108h1.3l2.48,5,2.24-5h1.18Zm8.74,8.51H88.34v-7.32l-2.36,5H85.27l-2.36-5v7.32H81.84V108h1.54l2.24,4.73L87.86,108H89.4v8.51Zm10,0H98.26v-7.32l-2.36,5H95.19l-2.36-5v7.32H91.76V108H93.3l2.24,4.73L97.79,108h1.65v8.51Zm7.44-2.6a1.75,1.75,0,0,0-.12-0.83,1.78,1.78,0,0,0-.47-0.47,1.68,1.68,0,0,0-.71-0.24c-0.24,0-.71-0.12-1.18-0.12h-1.54v3.31h1.54a3.29,3.29,0,0,0,1.18-.12,1.68,1.68,0,0,0,.71-0.24,2.07,2.07,0,0,0,.47-0.59,1.28,1.28,0,0,0,.12-0.71h0Zm1.18,0a1.76,1.76,0,0,1-.24,1.06,2.12,2.12,0,0,1-.59.83,4.79,4.79,0,0,1-1.06.59,4.87,4.87,0,0,1-1.42.12h-3.07V108h1.18v3.31h1.89a4.87,4.87,0,0,1,1.42.12,2.12,2.12,0,0,1,1.06.47,2.4,2.4,0,0,1,.71.83,3.64,3.64,0,0,1,.12,1.18h0Zm2.13,2.6h-1.06V108h1.06v8.51Zm-57.41,16.3H51.72v-2h-6v2H44.51v-3h0.71a7.82,7.82,0,0,0,1.18-3.19,17.71,17.71,0,0,0,.47-4.37H52v7.56h0.83v3Zm-1.89-3v-6.62h-3a18.36,18.36,0,0,1-.47,3.78,11,11,0,0,1-1.06,2.84h4.49Zm9.92-6.62a4.08,4.08,0,0,1,.83,1.42,7.68,7.68,0,0,1,0,3.78,4.09,4.09,0,0,1-.83,1.42,2.7,2.7,0,0,1-1.18.83A4.17,4.17,0,0,1,58,131a3.77,3.77,0,0,1-1.65-.35,3.06,3.06,0,0,1-1.3-.83,4.09,4.09,0,0,1-.83-1.42,7.68,7.68,0,0,1,0-3.78,8.81,8.81,0,0,1,.83-1.42,4.88,4.88,0,0,1,1.3-.83,3.77,3.77,0,0,1,1.65-.35,4.17,4.17,0,0,1,1.65.35,4.24,4.24,0,0,1,1.18.83h0Zm-0.12,3.31a4.24,4.24,0,0,0-.71-2.6,2.43,2.43,0,0,0-2-.83,2.68,2.68,0,0,0-2.13.83,4.24,4.24,0,0,0-.71,2.6,4,4,0,0,0,.71,2.6,2.77,2.77,0,0,0,2.13.95,2.52,2.52,0,0,0,2-.95,4,4,0,0,0,.71-2.6h0Zm8.51-3.31H64.83v7.56H63.77V122.3H69.2v0.95Zm7.56,0a4.08,4.08,0,0,1,.83,1.42,7.68,7.68,0,0,1,0,3.78,4.08,4.08,0,0,1-.83,1.42,2.7,2.7,0,0,1-1.18.83,4,4,0,0,1-3.31,0,3.06,3.06,0,0,1-1.3-.83,4.09,4.09,0,0,1-.83-1.42,7.68,7.68,0,0,1,0-3.78,8.81,8.81,0,0,1,.83-1.42,4.88,4.88,0,0,1,1.3-.83,4,4,0,0,1,3.31,0,4.24,4.24,0,0,1,1.18.83h0Zm-0.12,3.31a4.24,4.24,0,0,0-.71-2.6,2.43,2.43,0,0,0-2-.83,2.68,2.68,0,0,0-2.13.83,4.24,4.24,0,0,0-.71,2.6,3.45,3.45,0,0,0,.83,2.6,2.61,2.61,0,0,0,4,0,4,4,0,0,0,.71-2.6h0Zm9.57,1.65a2,2,0,0,1-.35,1.18,1.74,1.74,0,0,1-.59.71,2.41,2.41,0,0,1-1.06.59,4.87,4.87,0,0,1-1.42.12H79.71V122.3h3.9c0.35,0.12.59,0.24,0.95,0.35a3.13,3.13,0,0,1,.71.59,2.3,2.3,0,0,1,.12.95,2.82,2.82,0,0,1-.24,1.06,5.14,5.14,0,0,1-.83.71h0a1.94,1.94,0,0,1,1.3.83,2,2,0,0,1,.59,1.42h0Zm-2-3.9a0.71,0.71,0,0,0-.12-0.47,0.63,0.63,0,0,0-.24-0.35,1.5,1.5,0,0,0-.71-0.12,2.3,2.3,0,0,0-.95-0.12H80.78v2.48h2.36a3,3,0,0,0,.59-0.24,0.63,0.63,0,0,0,.35-0.47,1.28,1.28,0,0,0,.12-0.71h0Zm0.71,3.9a1.75,1.75,0,0,0-.12-0.83,1.28,1.28,0,0,0-.59-0.47,0.89,0.89,0,0,0-.59-0.12,2.6,2.6,0,0,0-.95-0.12H80.78v3.19h1.54a4.43,4.43,0,0,0,1.3-.12,1.68,1.68,0,0,0,.71-0.24,1.78,1.78,0,0,0,.47-0.47,1.75,1.75,0,0,0,.12-0.83h0Zm9.21-5a4.09,4.09,0,0,1,.83,1.42,7.68,7.68,0,0,1,0,3.78,4.09,4.09,0,0,1-.83,1.42,2.7,2.7,0,0,1-1.18.83,4.17,4.17,0,0,1-1.65.35,3.77,3.77,0,0,1-1.65-.35,3.06,3.06,0,0,1-1.3-.83,4.08,4.08,0,0,1-.83-1.42,7.68,7.68,0,0,1,0-3.78,8.81,8.81,0,0,1,.83-1.42,4.88,4.88,0,0,1,1.3-.83,3.77,3.77,0,0,1,1.65-.35,4.17,4.17,0,0,1,1.65.35,4.24,4.24,0,0,1,1.18.83h0ZM94,126.55a4.24,4.24,0,0,0-.71-2.6,2.43,2.43,0,0,0-2-.83,2.68,2.68,0,0,0-2.13.83,4.24,4.24,0,0,0-.71,2.6,4,4,0,0,0,.71,2.6,2.77,2.77,0,0,0,2.13.95,2.52,2.52,0,0,0,2-.95,4,4,0,0,0,.71-2.6h0Zm8.62-1.65a1.76,1.76,0,0,1-.24,1.06,3,3,0,0,1-.47.83,4.79,4.79,0,0,1-1.06.59,3,3,0,0,1-1.54.24H98.14v3.19H97.08V122.3h2.24a4,4,0,0,1,1.3.12,8.14,8.14,0,0,1,.95.35,5.46,5.46,0,0,1,.83.83,4.25,4.25,0,0,1,.24,1.3h0Zm-1.18,0a1.28,1.28,0,0,0-.12-0.71,1.18,1.18,0,0,0-.47-0.59,1.68,1.68,0,0,0-.71-0.24,1.75,1.75,0,0,0-.83-0.12H98.14v3.43h0.95a3.29,3.29,0,0,0,1.18-.12l0.71-.35a2.58,2.58,0,0,1,.35-0.59,1.5,1.5,0,0,0,.12-0.71h0Zm9.45,5.91h-1.18l-0.83-2.36h-3.78l-0.83,2.36H103.1l3.19-8.51h1.54Zm-2.36-3.31L107,123.24l-1.54,4.25h3.07Z" transform="translate(65 31.75)"/>
  </g>
</svg>
