<svg xmlns="http://www.w3.org/2000/svg" viewBox="0 0 115.42 110.39"><defs><style>.cls-1{fill:#e6e6e6;}.cls-2{fill:#5ec577;}.cls-3{isolation:isolate;}</style></defs><title>Ресурс 4</title><g id="Слой_2" data-name="Слой 2"><g id="eb27c3fc-c2b9-4e71-b2aa-a8cb62d6ad96"><path class="cls-1" d="M71.28,62.07l-5.12.76a1.52,1.52,0,0,0-1.3,1.41l-.34,5.16a1.52,1.52,0,0,1-1.62,1.42l-.15,0-5.1-.86a1.52,1.52,0,0,0-1.67.94l-1.92,4.8a1.52,1.52,0,0,1-2,.85l-.14-.07-4.59-2.39a1.52,1.52,0,0,0-1.88.38l-3.31,4a1.52,1.52,0,0,1-2.14.2l-.12-.11-3.62-3.69a1.52,1.52,0,0,0-1.9-.22L30,77.39a1.52,1.52,0,0,1-2.1-.47l-.08-.14-2.3-4.63a1.52,1.52,0,0,0-1.74-.8l-5,1.27a1.52,1.52,0,0,1-1.89-1.32l-.72-5.1a1.52,1.52,0,0,0-1.41-1.3L9.6,64.56a1.52,1.52,0,0,1-1.4-1.77l.86-5.1A1.52,1.52,0,0,0,8.12,56L3.32,54.1a1.52,1.52,0,0,1-.85-2L2.54,52l2.39-4.59a1.52,1.52,0,0,0-.38-1.88l-4-3.31a1.52,1.52,0,0,1-.2-2.14l.11-.12L4.17,36.3a1.52,1.52,0,0,0,.22-1.9L1.63,30a1.52,1.52,0,0,1,.47-2.1l.14-.08,4.63-2.3a1.52,1.52,0,0,0,.8-1.74l-1.27-5A1.52,1.52,0,0,1,7.5,17l.15,0,5.12-.76a1.52,1.52,0,0,0,1.3-1.41l.34-5.16A1.52,1.52,0,0,1,16,8.18l.13,0,5.1.86a1.52,1.52,0,0,0,1.67-.94l1.92-4.8a1.52,1.52,0,0,1,2-.85l.14.07,4.59,2.39a1.52,1.52,0,0,0,1.88-.38l3.31-4A1.52,1.52,0,0,1,38.9.35L39,.46l3.62,3.69a1.52,1.52,0,0,0,1.9.22l4.38-2.76A1.52,1.52,0,0,1,51,2.14l.09.17,2.3,4.63a1.52,1.52,0,0,0,1.74.8l5-1.27A1.52,1.52,0,0,1,62,7.71l.76,5.12a1.52,1.52,0,0,0,1.41,1.3l5.16.34a1.52,1.52,0,0,1,1.4,1.77L69.9,21.3A1.52,1.52,0,0,0,70.84,23l4.8,1.92a1.52,1.52,0,0,1,.85,2l-.07.14L74,31.6a1.52,1.52,0,0,0,.38,1.88l4,3.31a1.52,1.52,0,0,1,.2,2.14l-.11.12-3.69,3.62a1.52,1.52,0,0,0-.22,1.9L77.35,49a1.52,1.52,0,0,1-.47,2.1l-.14.08-4.63,2.3a1.52,1.52,0,0,0-.8,1.74l1.27,5A1.52,1.52,0,0,1,71.5,62Z"/><path class="cls-2" d="M56.54,59.08l4.11-.61a1.32,1.32,0,0,0,1.13-1.22l.28-4.17a1.32,1.32,0,0,1,1.4-1.24l.14,0,4.1.69a1.32,1.32,0,0,0,1.45-.81l1.55-3.86a1.32,1.32,0,0,1,1.71-.74l.13.06,3.67,1.88a1.32,1.32,0,0,0,1.63-.33l2.66-3.19a1.32,1.32,0,0,1,1.85-.21l.15.13,2.91,3a1.32,1.32,0,0,0,1.65.19l3.52-2.21a1.32,1.32,0,0,1,1.82.41l.07.12,1.85,3.72a1.32,1.32,0,0,0,1.51.69l4-1a1.32,1.32,0,0,1,1.63,1.09l.61,4.11a1.32,1.32,0,0,0,1.22,1.13l4.15.28a1.32,1.32,0,0,1,1.22,1.54l-.69,4.1a1.32,1.32,0,0,0,.81,1.45l3.86,1.55a1.32,1.32,0,0,1,.74,1.71l-.06.13-1.92,3.69a1.32,1.32,0,0,0,.33,1.63l3.19,2.66a1.32,1.32,0,0,1,.21,1.85l-.13.15-3,2.91a1.32,1.32,0,0,0-.19,1.65L114,85.55a1.32,1.32,0,0,1-.41,1.82l-.12.07-3.72,1.85a1.32,1.32,0,0,0-.69,1.51l1,4a1.32,1.32,0,0,1-1,1.6l-.13,0-4.11.61a1.32,1.32,0,0,0-1.13,1.22l-.28,4.15a1.32,1.32,0,0,1-1.4,1.24l-.14,0-4.1-.69a1.32,1.32,0,0,0-1.45.81l-1.55,3.86a1.32,1.32,0,0,1-1.71.74l-.13-.06-3.69-1.92a1.32,1.32,0,0,0-1.63.33L85,109.89a1.32,1.32,0,0,1-1.85.21L83,110l-2.91-3a1.32,1.32,0,0,0-1.65-.19L74.93,109a1.32,1.32,0,0,1-1.82-.41l-.07-.12-1.85-3.72a1.32,1.32,0,0,0-1.51-.69l-4,1A1.32,1.32,0,0,1,64.15,104v0l-.61-4.11a1.32,1.32,0,0,0-1.22-1.13l-4.17-.27a1.32,1.32,0,0,1-1.22-1.54l.69-4.1a1.32,1.32,0,0,0-.81-1.45L52.94,89.8a1.32,1.32,0,0,1-.74-1.71l.06-.13,1.88-3.68a1.32,1.32,0,0,0-.33-1.63L50.62,80a1.32,1.32,0,0,1-.21-1.85l.13-.15,3-2.91a1.32,1.32,0,0,0,.19-1.65l-2.21-3.52a1.32,1.32,0,0,1,.49-1.8l.05,0,3.72-1.85a1.32,1.32,0,0,0,.69-1.51l-1-4a1.32,1.32,0,0,1,.94-1.61Z"/><g class="cls-3"><text class="cls-3"></text></g><path d="M18,31.15H14v6.92h-1V30.22H18Z"/><path d="M23.53,38.07h-1v-.63l-.36.25a2.61,2.61,0,0,1-.44.26,3,3,0,0,1-.57.2,3.07,3.07,0,0,1-.75.08,1.89,1.89,0,0,1-1.35-.53,1.78,1.78,0,0,1-.55-1.35,1.86,1.86,0,0,1,.29-1.08,1.92,1.92,0,0,1,.82-.65,4.42,4.42,0,0,1,1.29-.32q.75-.08,1.62-.13V34a1.18,1.18,0,0,0-.12-.56.86.86,0,0,0-.34-.35,1.41,1.41,0,0,0-.51-.16,4.33,4.33,0,0,0-.62,0,4.2,4.2,0,0,0-.87.1,6.82,6.82,0,0,0-1,.3H19v-1q.29-.08.84-.17A6.31,6.31,0,0,1,21,32a5,5,0,0,1,1.08.1,2.11,2.11,0,0,1,.8.35,1.55,1.55,0,0,1,.51.63,2.31,2.31,0,0,1,.17,1Zm-1-1.45V35l-1.07.08a5.51,5.51,0,0,0-1,.15,1.6,1.6,0,0,0-.69.38,1.09,1.09,0,0,0,0,1.47,1.43,1.43,0,0,0,.93.26,2.22,2.22,0,0,0,1-.2A4.3,4.3,0,0,0,22.54,36.62Z"/><path d="M30.62,35.06a4,4,0,0,1-.21,1.31,2.86,2.86,0,0,1-.58,1A2.43,2.43,0,0,1,29,38a2.4,2.4,0,0,1-1,.21,3.18,3.18,0,0,1-.83-.1,3.42,3.42,0,0,1-.76-.31v2.47h-1V32.18h1v.62a3.85,3.85,0,0,1,.89-.56A2.51,2.51,0,0,1,28.37,32a1.94,1.94,0,0,1,1.66.8A3.69,3.69,0,0,1,30.62,35.06Zm-1,0a2.82,2.82,0,0,0-.36-1.59A1.27,1.27,0,0,0,28.11,33a2.17,2.17,0,0,0-.86.18,3.87,3.87,0,0,0-.83.49V37a4,4,0,0,0,.73.26,3.15,3.15,0,0,0,.69.07,1.59,1.59,0,0,0,1.29-.56A2.54,2.54,0,0,0,29.6,35.08Z"/><path d="M36.74,38.07h-1v-.63l-.36.25A2.61,2.61,0,0,1,35,38a3,3,0,0,1-.57.2,3.07,3.07,0,0,1-.75.08,1.89,1.89,0,0,1-1.35-.53,1.78,1.78,0,0,1-.55-1.35A1.86,1.86,0,0,1,32,35.28a1.92,1.92,0,0,1,.82-.65,4.42,4.42,0,0,1,1.29-.32q.75-.08,1.62-.13V34a1.18,1.18,0,0,0-.12-.56.86.86,0,0,0-.34-.35,1.41,1.41,0,0,0-.51-.16,4.33,4.33,0,0,0-.62,0,4.2,4.2,0,0,0-.87.1,6.82,6.82,0,0,0-1,.3h-.05v-1q.29-.08.84-.17A6.31,6.31,0,0,1,34.18,32a5,5,0,0,1,1.08.1,2.11,2.11,0,0,1,.8.35,1.55,1.55,0,0,1,.51.63,2.31,2.31,0,0,1,.17,1Zm-1-1.45V35l-1.07.08a5.51,5.51,0,0,0-1,.15,1.6,1.6,0,0,0-.69.38,1.09,1.09,0,0,0,0,1.47,1.43,1.43,0,0,0,.93.26,2.22,2.22,0,0,0,1-.2A4.3,4.3,0,0,0,35.76,36.62Z"/><path d="M43.58,38.07h-1V35.42H39.64v2.65h-1V32.18h1v2.38h2.95V32.18h1Z"/><path d="M49.86,33.05H47.73v5h-1v-5H44.61v-.87h5.25Z"/><path d="M55.86,38.07h-1V33.65l-3.09,4.42h-.9V32.18h1v4.36l3.05-4.36h.93Z"/><path d="M62.33,38.07h-1V35.74H60.17l-1.82,2.34H57.19l2-2.43A2.12,2.12,0,0,1,58,35a1.76,1.76,0,0,1-.35-1.14,1.44,1.44,0,0,1,.21-.8,1.75,1.75,0,0,1,.53-.53,2,2,0,0,1,.73-.27,5.27,5.27,0,0,1,.9-.07h2.27Zm-1-3.12V33H60.09a4.54,4.54,0,0,0-.59,0,1.2,1.2,0,0,0-.39.14.73.73,0,0,0-.3.31,1,1,0,0,0-.1.43,1.49,1.49,0,0,0,.06.47.77.77,0,0,0,.25.34,1.1,1.1,0,0,0,.47.21,3.2,3.2,0,0,0,.62.06Z"/><path d="M25.49,47.8h-1l-1.83-2h-.4v2h-.74V43.38h.74v1.91a1.16,1.16,0,0,0,.59-.13,1.06,1.06,0,0,0,.38-.43l.11-.23.1-.23A1.64,1.64,0,0,1,24,43.6a1.51,1.51,0,0,1,.89-.22h.34V44h-.33a.8.8,0,0,0-.49.13,1.13,1.13,0,0,0-.32.46,1.86,1.86,0,0,1-.33.56,1.3,1.3,0,0,1-.37.28Z"/><path d="M29.73,47.8H29v-.47l-.27.19a1.91,1.91,0,0,1-.33.19,2.22,2.22,0,0,1-.43.15,2.33,2.33,0,0,1-.57.06,1.41,1.41,0,0,1-1-.4,1.33,1.33,0,0,1-.42-1,1.4,1.4,0,0,1,.22-.81,1.44,1.44,0,0,1,.62-.49,3.31,3.31,0,0,1,1-.24q.57-.06,1.21-.09v-.11a.88.88,0,0,0-.09-.42.65.65,0,0,0-.25-.26,1.07,1.07,0,0,0-.38-.12,3.29,3.29,0,0,0-.46,0,3.15,3.15,0,0,0-.65.08,5.12,5.12,0,0,0-.74.22h0v-.76l.63-.13a4.72,4.72,0,0,1,.81-.07,3.76,3.76,0,0,1,.81.08,1.59,1.59,0,0,1,.6.26,1.17,1.17,0,0,1,.38.47,1.74,1.74,0,0,1,.13.72ZM29,46.71V45.48l-.8.06a4.22,4.22,0,0,0-.73.11,1.2,1.2,0,0,0-.52.28A.82.82,0,0,0,27,47a1.07,1.07,0,0,0,.7.19,1.66,1.66,0,0,0,.72-.15A3.21,3.21,0,0,0,29,46.71Z"/><path d="M34.6,47.8h-.74V46.1q-.36.11-.69.18a3.56,3.56,0,0,1-.72.07A1.54,1.54,0,0,1,31.37,46,1.31,1.31,0,0,1,31,45V43.38h.74V44.6a2.92,2.92,0,0,0,0,.45.82.82,0,0,0,.13.35.65.65,0,0,0,.29.22,1.43,1.43,0,0,0,.52.07,3.61,3.61,0,0,0,.59-.05,4.6,4.6,0,0,0,.56-.12V43.38h.74Z"/><path d="M39.77,45.66H36.51a1.89,1.89,0,0,0,.12.71,1.32,1.32,0,0,0,.82.78,2,2,0,0,0,.62.09,2.47,2.47,0,0,0,.91-.18,2.24,2.24,0,0,0,.65-.35h0v.81a6.14,6.14,0,0,1-.77.27,3.11,3.11,0,0,1-.82.11,2.37,2.37,0,0,1-1.72-.6,2.24,2.24,0,0,1-.62-1.69,2.43,2.43,0,0,1,.59-1.72,2,2,0,0,1,1.56-.64,1.79,1.79,0,0,1,1.38.52,2.1,2.1,0,0,1,.48,1.48ZM39,45.09a1.31,1.31,0,0,0-.29-.91,1.14,1.14,0,0,0-.88-.32,1.29,1.29,0,0,0-1,.35,1.37,1.37,0,0,0-.4.87Z"/><path d="M44.2,47.52a4.35,4.35,0,0,1-.78.29,2.76,2.76,0,0,1-1.54-.06,1.83,1.83,0,0,1-.69-.43,1.93,1.93,0,0,1-.45-.72,2.93,2.93,0,0,1-.16-1,2.38,2.38,0,0,1,.59-1.69,2.08,2.08,0,0,1,1.6-.63,2.7,2.7,0,0,1,.75.11,4,4,0,0,1,.68.26v.83h0a2.86,2.86,0,0,0-.73-.42,2,2,0,0,0-.69-.13,1.25,1.25,0,0,0-1,.44,1.89,1.89,0,0,0-.36,1.23,1.86,1.86,0,0,0,.36,1.22,1.25,1.25,0,0,0,1,.44,1.86,1.86,0,0,0,.46-.06,2.13,2.13,0,0,0,.42-.15l.31-.18.22-.16h0Z"/><path d="M48.47,44h-1.6V47.8h-.74V44h-1.6v-.65h3.94Z"/><path d="M52.89,46.46a1.22,1.22,0,0,1-.13.57,1.18,1.18,0,0,1-.35.42,1.69,1.69,0,0,1-.55.27,3,3,0,0,1-.79.08H49.24V43.38h1.71a6.08,6.08,0,0,1,.75,0,1.43,1.43,0,0,1,.47.15.86.86,0,0,1,.37.34,1,1,0,0,1,.12.49.91.91,0,0,1-.19.57,1.25,1.25,0,0,1-.48.38v0a1.28,1.28,0,0,1,.65.37A1,1,0,0,1,52.89,46.46Zm-1-2a.54.54,0,0,0-.06-.26.42.42,0,0,0-.19-.18.92.92,0,0,0-.37-.09H50v1.21h.93l.43,0a.77.77,0,0,0,.28-.11.52.52,0,0,0,.21-.22A.78.78,0,0,0,51.88,44.51Zm.23,2a.77.77,0,0,0-.07-.35.65.65,0,0,0-.31-.25.91.91,0,0,0-.32-.09H50V47.2h.7a5.88,5.88,0,0,0,.68,0,1.1,1.1,0,0,0,.41-.13A.69.69,0,0,0,52,46.8.65.65,0,0,0,52.12,46.46Z"/><path d="M57.49,47.8h-.74v-.47l-.27.19a1.91,1.91,0,0,1-.33.19,2.22,2.22,0,0,1-.43.15,2.33,2.33,0,0,1-.57.06,1.41,1.41,0,0,1-1-.4,1.33,1.33,0,0,1-.42-1A1.4,1.4,0,0,1,54,45.7a1.44,1.44,0,0,1,.62-.49,3.31,3.31,0,0,1,1-.24q.57-.06,1.21-.09v-.11a.88.88,0,0,0-.09-.42.65.65,0,0,0-.25-.26A1.07,1.07,0,0,0,56,44a3.29,3.29,0,0,0-.46,0,3.15,3.15,0,0,0-.65.08,5.12,5.12,0,0,0-.74.22h0v-.76l.63-.13a4.72,4.72,0,0,1,.81-.07,3.76,3.76,0,0,1,.81.08,1.59,1.59,0,0,1,.6.26,1.17,1.17,0,0,1,.38.47,1.74,1.74,0,0,1,.13.72Zm-.74-1.09V45.48l-.8.06a4.22,4.22,0,0,0-.73.11,1.2,1.2,0,0,0-.52.28.82.82,0,0,0,0,1.1,1.07,1.07,0,0,0,.7.19,1.66,1.66,0,0,0,.72-.15A3.21,3.21,0,0,0,56.75,46.71Z"/><path d="M70,77.88H64.66v-1.1l1.11-.95q.56-.47,1-.94a10.11,10.11,0,0,0,1.39-1.56,2.25,2.25,0,0,0,.38-1.25,1.19,1.19,0,0,0-.4-1A1.68,1.68,0,0,0,67,70.78a3.62,3.62,0,0,0-1,.17,4.23,4.23,0,0,0-1.09.52h-.05V70.36a5,5,0,0,1,1-.34,5.06,5.06,0,0,1,1.21-.15,2.83,2.83,0,0,1,1.89.58A2,2,0,0,1,69.65,72a3,3,0,0,1-.11.84,2.86,2.86,0,0,1-.33.74,5.08,5.08,0,0,1-.48.64q-.28.32-.67.7-.56.55-1.17,1.07l-1.12,1H70Z"/><path d="M76.83,74a5.69,5.69,0,0,1-.66,3.1,2.63,2.63,0,0,1-4.12,0A5.75,5.75,0,0,1,71.4,74a5.72,5.72,0,0,1,.66-3.09,2.61,2.61,0,0,1,4.12,0A5.76,5.76,0,0,1,76.83,74Zm-1.39,2.39a3.54,3.54,0,0,0,.25-1A12.47,12.47,0,0,0,75.76,74a12.73,12.73,0,0,0-.07-1.39,3.23,3.23,0,0,0-.26-1,1.38,1.38,0,0,0-.5-.61,1.49,1.49,0,0,0-.82-.21,1.51,1.51,0,0,0-.82.21,1.39,1.39,0,0,0-.51.62,3.28,3.28,0,0,0-.25,1A13.23,13.23,0,0,0,72.47,74a13.77,13.77,0,0,0,.06,1.38,3.39,3.39,0,0,0,.25,1,1.39,1.39,0,0,0,.49.63,1.49,1.49,0,0,0,.85.22,1.51,1.51,0,0,0,.82-.21A1.32,1.32,0,0,0,75.45,76.35Z"/><path d="M87.07,77.88h-1V72.82h-2.2q0,.44,0,.84t0,.73a12.67,12.67,0,0,1-.12,1.41,4.26,4.26,0,0,1-.22.87,2.15,2.15,0,0,1-.28.53,2.88,2.88,0,0,1-.33.37,1.24,1.24,0,0,1-.4.24,1.39,1.39,0,0,1-.48.08H81.5V77h.31a1,1,0,0,0,.26,0,.49.49,0,0,0,.23-.14,1.94,1.94,0,0,0,.43-.89,9.34,9.34,0,0,0,.22-1.81q0-.43,0-1L83,72h4.06Z"/><path d="M94,75H89.61a2.5,2.5,0,0,0,.16.95,1.75,1.75,0,0,0,1.1,1,2.61,2.61,0,0,0,.83.13,3.28,3.28,0,0,0,1.21-.24,3,3,0,0,0,.87-.47h.05v1.08a8.23,8.23,0,0,1-1,.35,4.12,4.12,0,0,1-1.1.14,3.16,3.16,0,0,1-2.29-.79A3,3,0,0,1,88.61,75a3.24,3.24,0,0,1,.79-2.29,2.7,2.7,0,0,1,2.08-.85,2.39,2.39,0,0,1,1.84.7,2.8,2.8,0,0,1,.65,2Zm-1-.76a1.76,1.76,0,0,0-.39-1.21,1.52,1.52,0,0,0-1.18-.43,1.72,1.72,0,0,0-1.27.47,1.82,1.82,0,0,0-.54,1.17Z"/><path d="M99.79,72.86H97.66v5h-1v-5H94.53V72h5.25Z"/><path d="M67.09,85.08h-.55v-2.8H64.91v2.8h-.55V81.81h2.74Z"/><path d="M71,83.45a1.84,1.84,0,0,1-.41,1.26,1.54,1.54,0,0,1-2.2,0,2.16,2.16,0,0,1,0-2.53,1.54,1.54,0,0,1,2.2,0A1.84,1.84,0,0,1,71,83.45Zm-.57,0a1.49,1.49,0,0,0-.25-.95.93.93,0,0,0-1.39,0,1.9,1.9,0,0,0,0,1.88.91.91,0,0,0,1.38,0A1.48,1.48,0,0,0,70.4,83.45Z"/><path d="M76.9,85.87h-.51v-.79H73.93v.79h-.51V84.61h.35a4.38,4.38,0,0,0,.51-1.31,6.72,6.72,0,0,0,.17-1.5H76.5v2.8h.4ZM76,84.61V82.27H75a5.5,5.5,0,0,1-.23,1.34,4.35,4.35,0,0,1-.43,1Z"/><path d="M80.45,83.45A1.84,1.84,0,0,1,80,84.71a1.54,1.54,0,0,1-2.2,0,2.16,2.16,0,0,1,0-2.53,1.54,1.54,0,0,1,2.2,0A1.84,1.84,0,0,1,80.45,83.45Zm-.57,0a1.49,1.49,0,0,0-.25-.95.93.93,0,0,0-1.39,0,1.9,1.9,0,0,0,0,1.88.91.91,0,0,0,1.38,0A1.48,1.48,0,0,0,79.88,83.45Z"/><path d="M83.56,82.29H81.85v2.79H81.3V81.81h2.26Z"/><path d="M86.92,83.45a1.84,1.84,0,0,1-.41,1.26,1.54,1.54,0,0,1-2.2,0,2.16,2.16,0,0,1,0-2.53,1.54,1.54,0,0,1,2.2,0A1.84,1.84,0,0,1,86.92,83.45Zm-.57,0a1.49,1.49,0,0,0-.25-.95.93.93,0,0,0-1.39,0,1.9,1.9,0,0,0,0,1.88.91.91,0,0,0,1.38,0A1.48,1.48,0,0,0,86.35,83.45Z"/><path d="M90.47,84.09a.91.91,0,0,1-.09.42.88.88,0,0,1-.26.31,1.25,1.25,0,0,1-.41.2,2.24,2.24,0,0,1-.58.06H87.77V81.81H89a4.54,4.54,0,0,1,.55,0,1.06,1.06,0,0,1,.35.11.64.64,0,0,1,.27.25.74.74,0,0,1,.09.37.67.67,0,0,1-.14.42.93.93,0,0,1-.35.28v0a1,1,0,0,1,.48.27A.74.74,0,0,1,90.47,84.09Zm-.74-1.44a.4.4,0,0,0,0-.19.31.31,0,0,0-.14-.13.68.68,0,0,0-.28-.07h-1v.9H89l.32,0a.57.57,0,0,0,.21-.08.39.39,0,0,0,.15-.17A.58.58,0,0,0,89.73,82.65Zm.17,1.45a.57.57,0,0,0-.05-.26.48.48,0,0,0-.23-.19.68.68,0,0,0-.24-.06H88.31v1.07h.52l.51,0a.82.82,0,0,0,.31-.09.51.51,0,0,0,.19-.18A.48.48,0,0,0,89.9,84.1Z"/><path d="M94.13,83.45a1.84,1.84,0,0,1-.41,1.26,1.54,1.54,0,0,1-2.2,0,2.16,2.16,0,0,1,0-2.53,1.54,1.54,0,0,1,2.2,0A1.84,1.84,0,0,1,94.13,83.45Zm-.57,0a1.49,1.49,0,0,0-.25-.95.93.93,0,0,0-1.39,0,1.9,1.9,0,0,0,0,1.88.91.91,0,0,0,1.38,0A1.48,1.48,0,0,0,93.56,83.45Z"/><path d="M97.86,83.41a2.21,2.21,0,0,1-.11.73,1.59,1.59,0,0,1-.32.56,1.35,1.35,0,0,1-1,.45,1.77,1.77,0,0,1-.46-.06,1.92,1.92,0,0,1-.42-.17v1.37H95V81.81h.55v.34a2.14,2.14,0,0,1,.49-.31,1.39,1.39,0,0,1,.58-.12,1.08,1.08,0,0,1,.92.45A2.06,2.06,0,0,1,97.86,83.41Zm-.57,0a1.57,1.57,0,0,0-.2-.88.7.7,0,0,0-.62-.29,1.21,1.21,0,0,0-.48.1,2.16,2.16,0,0,0-.46.27v1.85a2.2,2.2,0,0,0,.4.14,1.74,1.74,0,0,0,.38,0,.88.88,0,0,0,.72-.31A1.41,1.41,0,0,0,97.29,83.42Z"/><path d="M101.55,81.81l-1.91,4.48H99l.61-1.37-1.3-3.11H99l1,2.43,1-2.43Z"/></g></g></svg>